# xmcd
# 
# Track frame offsets:
#     150
#     19265
#     38718
#     54796
#     70892
#     87626
#     100957
#     123766
#     142487
#     160055
#     174970
# 
# Disc length: 2566
# 
# Revision: 0
# Processed by: cddbd v1.5.2PL0 Copyright (c) Steve Scherf et al.
# Submitted via: fre:ac v1.0.27
# 
DISCID=900a040b
DTITLE=Sarah Blackwood - Wasting time
DYEAR=2010
DGENRE=Folk
TTITLE0=Wasting Time
TTITLE1=Coming Home
TTITLE2=Turning
TTITLE3=Way Round
TTITLE4=I'll Keep On Waiting
TTITLE5=Long Road
TTITLE6=Sunshine Serenade
TTITLE7=Fall From A Star
TTITLE8=These Are The Days
TTITLE9=Diamond Eyed Devil
TTITLE10=Drags Me Down
EXTD=
EXTT0=
EXTT1=
EXTT2=
EXTT3=
EXTT4=
EXTT5=
EXTT6=
EXTT7=
EXTT8=
EXTT9=
EXTT10=
PLAYORDER=
